<svg width="40" height="40" viewBox="0 0 40 40" fill="none" xmlns="http://www.w3.org/2000/svg">
<path d="M18.4973 6.33952H9.01981C5.87924 6.33952 3.33331 8.88537 3.33331 12.0258V30.9804C3.33331 34.1209 5.87924 36.6667 9.01981 36.6667H27.9748C31.1154 36.6667 33.6613 34.1209 33.6613 30.9804L33.6613 21.5031M12.8108 27.1893L19.7072 25.7998C20.0733 25.726 20.4095 25.5458 20.6735 25.2816L36.1118 9.83531C36.852 9.09474 36.8515 7.89432 36.1107 7.15437L32.8403 3.88778C32.0998 3.14813 30.9 3.14864 30.1601 3.8889L14.7201 19.3368C14.4566 19.6004 14.2767 19.9359 14.2029 20.3012L12.8108 27.1893Z" stroke="#FEB216" stroke-width="2" stroke-linecap="round" stroke-linejoin="round"/>
</svg>
