<svg width="75" height="75" viewBox="0 0 75 75" fill="none" xmlns="http://www.w3.org/2000/svg">
<rect width="75" height="75" stroke="black"/>
<path d="M63.6914 33.9844L58.5938 28.8902V16.4062C58.5938 14.4727 57.0117 12.8906 55.0781 12.8906H51.5625C49.6289 12.8906 48.0469 14.4727 48.0469 16.4062V18.3504L41.0156 11.3262C40.0559 10.4191 39.177 9.375 37.5 9.375C35.823 9.375 34.9441 10.4191 33.9844 11.3262L11.3086 33.9844C10.2117 35.127 9.375 35.9602 9.375 37.5C9.375 39.4793 10.8937 41.0156 12.8906 41.0156H16.4062V62.1094C16.4062 64.043 17.9883 65.625 19.9219 65.625H26.9531C28.8948 65.625 30.4688 64.051 30.4688 62.1094V48.0469C30.4688 46.1133 32.0508 44.5312 33.9844 44.5312H41.0156C42.9492 44.5312 44.5312 46.1133 44.5312 48.0469V62.1094C44.5312 64.051 44.3474 65.625 46.2891 65.625H55.0781C57.0117 65.625 58.5938 64.043 58.5938 62.1094V41.0156H62.1094C64.1063 41.0156 65.625 39.4793 65.625 37.5C65.625 35.9602 64.7883 35.127 63.6914 33.9844Z" stroke="#F1F2F2" stroke-width="2" stroke-linejoin="round"/>
</svg>
